<svg width="17" height="24" viewBox="0 0 17 24" fill="none" xmlns="http://www.w3.org/2000/svg">
<path d="M17 15.2727C17 15.5682 16.8949 15.8239 16.6846 16.0398L9.24707 23.6761C9.03678 23.892 8.78776 24 8.5 24C8.21224 24 7.96322 23.892 7.75293 23.6761L0.31543 16.0398C0.105143 15.8239 0 15.5682 0 15.2727C0 14.9773 0.105143 14.7216 0.31543 14.5057C0.525716 14.2898 0.77474 14.1818 1.0625 14.1818H15.9375C16.2253 14.1818 16.4743 14.2898 16.6846 14.5057C16.8949 14.7216 17 14.9773 17 15.2727ZM17 8.72727C17 9.02273 16.8949 9.27841 16.6846 9.49432C16.4743 9.71023 16.2253 9.81818 15.9375 9.81818H1.0625C0.77474 9.81818 0.525716 9.71023 0.31543 9.49432C0.105143 9.27841 0 9.02273 0 8.72727C0 8.43182 0.105143 8.17614 0.31543 7.96023L7.75293 0.323864C7.96322 0.107955 8.21224 0 8.5 0C8.78776 0 9.03678 0.107955 9.24707 0.323864L16.6846 7.96023C16.8949 8.17614 17 8.43182 17 8.72727Z" fill="black"/>
</svg>
